<svg xmlns="http://www.w3.org/2000/svg" width="19" height="23" viewBox="0 0 19 23">
  <metadata><?xpacket begin="﻿" id="W5M0MpCehiHzreSzNTczkc9d"?>
<x:xmpmeta xmlns:x="adobe:ns:meta/" x:xmptk="Adobe XMP Core 5.6-c142 79.160924, 2017/07/13-01:06:39        ">
   <rdf:RDF xmlns:rdf="http://www.w3.org/1999/02/22-rdf-syntax-ns#">
      <rdf:Description rdf:about=""/>
   </rdf:RDF>
</x:xmpmeta>
                                                                                                    
                                                                                                    
                                                                                                    
                                                                                                    
                                                                                                    
                                                                                                    
                                                                                                    
                                                                                                    
                                                                                                    
                                                                                                    
                                                                                                    
                                                                                                    
                                                                                                    
                                                                                                    
                                                                                                    
                                                                                                    
                                                                                                    
                                                                                                    
                                                                                                    
                                                                                                    
                           
<?xpacket end="w"?></metadata>
<defs>
    <style>
      .cls-1 {
        fill: #e9e5da;
        fill-rule: evenodd;
      }
    </style>
  </defs>
  <path id="Shop" class="cls-1" d="M1322.8,60.144l-1.41-15.706a0.552,0.552,0,0,0-.55-0.5h-3.19V42.345a4.155,4.155,0,1,0-8.31,0v1.589h-3.18a0.562,0.562,0,0,0-.56.5l-1.41,15.767a0.548,0.548,0,0,0,.14.424,0.576,0.576,0,0,0,.41.18h17.51a0.557,0.557,0,0,0,.56-0.555,0.278,0.278,0,0,0-.01-0.091V60.144Zm-12.35-17.8a3.045,3.045,0,1,1,6.09,0v1.589h-6.09V42.345Zm-5.1,17.356,1.31-14.658h2.68v1.765a0.555,0.555,0,0,0,1.11,0V45.043h6.09v1.765a0.555,0.555,0,0,0,1.11,0V45.043h2.68l1.32,14.658h-16.3Zm16.9,1.3h-17.51a0.741,0.741,0,0,1-.74-0.81l1.41-15.768a0.751,0.751,0,0,1,.75-0.678h2.99v-1.4a4.345,4.345,0,0,1,8.69,0v1.4h3a0.742,0.742,0,0,1,.74.678l1.41,15.718a0.417,0.417,0,0,1,.01.114A0.744,0.744,0,0,1,1322.25,61Zm-16.09-16.877a0.372,0.372,0,0,0-.37.332l-1.41,15.768a0.356,0.356,0,0,0,.09.279,0.373,0.373,0,0,0,.27.119h17.51a0.364,0.364,0,0,0,.37-0.365V60.195l-0.01-.033-1.41-15.706a0.362,0.362,0,0,0-.36-0.332h-3.38V42.345a3.965,3.965,0,1,0-7.93,0v1.778h-3.37Zm15.69,15.768h-16.71l1.35-15.037h3.04v1.954a0.37,0.37,0,0,0,.37.365,0.362,0.362,0,0,0,.36-0.365V44.854h6.47v1.954a0.37,0.37,0,0,0,.37.365,0.362,0.362,0,0,0,.36-0.365V44.854h3.04Zm-16.3-.379h15.89l-1.28-14.279h-2.32v1.575a0.741,0.741,0,0,1-.74.743,0.75,0.75,0,0,1-.75-0.743V45.233h-5.71v1.575a0.741,0.741,0,0,1-.74.743,0.75,0.75,0,0,1-.75-0.743V45.233h-2.31Zm11.18-15.389h-6.47V42.345a3.235,3.235,0,1,1,6.47,0v1.778Zm-6.09-.379h5.71v-1.4a2.855,2.855,0,1,0-5.71,0v1.4Z" transform="translate(-1304 -38)"/>
</svg>
